:SAMPLES-PER-SECOND 30
:FRAME-RANGE 1-1770
:FULLY-SPECIFIED
:DEGREES
609
root  -37.2912 39.2203 -86.0207 2.6257 -79.0334 7.58067
RightUpLeg  -11.1161 -12.6531 -11.1755
RightLeg  15.6451 -13.9747 -4.09237
RightFoot  -5.62332 -0.847631 16.1028
RightToes  -1.33073e-015 0 -3.6325e-017
Spine  -1.81299 -1.51194 2.18366
Spine1  6.36646 -1.56078 -0.714314
HEad  7.54684 50.3857 -15.3636
LeftShoulder1  2.48623 -5.07228 -23.7007
LeftArm  6.54637 -15.8907 -62.0474
LeftForeArm  41.3685 -0.257645 -13.7796
LeftHand  -0.0269944 5.31 5.23444
RightShoulder  1.52766 2.27694 21.0525
RightArm  -21.5672 4.64581 37.3875
RightForeArm  53.0621 -1.36785 6.10186
RightHand  0.286951 -6.94256 -22.0365
LeftUpLeg  -25.5451 19.449 5.99019
LeftLeg  13.3206 24.3975 4.07313
LeftFoot  -1.56161 0.477515 -5.4706
LeftToes  1.09107e-011 -1.16422e-010 2.98337e-011
610
root  -37.578 39.098 -85.3295 6.48856 -76.5168 3.38525
RightUpLeg  -8.77108 -13.3785 -11.7479
RightLeg  14.7009 -15.3165 -3.95199
RightFoot  -5.45704 -0.94522 17.5354
RightToes  -1.33073e-015 0 -3.6325e-017
Spine  -2.39323 -1.40768 2.04806
Spine1  6.76831 -1.37388 -1.02533
HEad  6.61075 50.2246 -15.6828
LeftShoulder1  2.32159 -4.57438 -23.4731
LeftArm  5.68573 -14.4734 -60.5464
LeftForeArm  40.3612 -0.48489 -13.6499
LeftHand  -0.017576 5.53674 5.34023
RightShoulder  1.54462 2.2635 21.4497
RightArm  -21.8233 3.85463 37.6384
RightForeArm  53.4875 -2.0135 5.89258
RightHand  0.333871 -7.19085 -22.0155
LeftUpLeg  -25.5091 17.8361 6.69291
LeftLeg  12.5757 32.7176 4.65066
LeftFoot  -0.287466 0.398029 -4.09576
LeftToes  1.09107e-011 -1.16422e-010 2.98337e-011
611
root  -37.9102 38.9549 -84.5278 7.12114 -75.0742 2.11705
RightUpLeg  -6.69275 -13.9364 -12.9624
RightLeg  14.6176 -15.4994 -4.12375
RightFoot  -5.23476 -1.09502 19.674
RightToes  -1.33073e-015 0 -3.6325e-017
Spine  -2.90675 -1.05921 0.997961
Spine1  7.27693 -0.873167 -1.37523
HEad  6.2448 50.2848 -15.5182
LeftShoulder1  2.15374 -3.99656 -23.5055
LeftArm  5.61167 -12.8121 -58.8371
LeftForeArm  39.7791 -1.01675 -13.5923
LeftHand  -0.0256281 5.33901 5.5428
RightShoulder  1.55731 2.21161 21.9735
RightArm  -21.7921 2.86726 38.2375
RightForeArm  54.4344 -2.26947 5.86501
RightHand  0.406208 -7.59892 -21.7615
LeftUpLeg  -25.4042 18.4222 5.98295
LeftLeg  14.1966 32.0046 5.60544
LeftFoot  2.488 0.592585 -5.00988
LeftToes  1.09107e-011 -1.16422e-010 2.98337e-011
612
root  -38.2138 38.7795 -83.5575 5.56766 -73.1466 2.85164
RightUpLeg  -5.02545 -15.3248 -15.171
RightLeg  16.3742 -14.5987 -4.73973
RightFoot  -4.74399 -1.3533 22.6359
RightToes  -1.33073e-015 0 -3.6325e-017
Spine  -2.77757 -1.02116 -0.587376
Spine1  7.04658 -0.8694 -1.04964
HEad  6.05407 50.5756 -15.5526
LeftShoulder1  2.00784 -3.36518 -24.1397
LeftArm  6.34761 -10.9495 -56.6951
LeftForeArm  37.975 -1.81844 -13.675
LeftHand  -0.0211377 5.42819 5.99928
RightShoulder  1.54203 1.99946 22.8628
RightArm  -22.0444 1.66053 39.0218
RightForeArm  57.7074 -1.99599 5.70202
RightHand  0.0986209 -6.05125 -19.3421
LeftUpLeg  -26.8936 22.758 2.1557
LeftLeg  16.9847 23.5153 6.35697
LeftFoot  2.92698 0.265286 -2.26169
LeftToes  1.09107e-011 -1.16422e-010 2.98337e-011
613
root  -38.5081 38.665 -82.4998 2.10707 -70.5665 5.65187
RightUpLeg  -3.85002 -16.494 -18.593
RightLeg  19.7243 -13.7271 -5.5953
RightFoot  -3.40705 -1.90701 26.6985
RightToes  -1.33073e-015 0 -3.6325e-017
Spine  -2.7957 -1.10138 -2.24545
Spine1  6.90893 -0.851899 -1.31456
HEad  6.62471 50.4278 -14.9417
LeftShoulder1  2.00114 -3.2023 -24.8216
LeftArm  7.06561 -9.42839 -54.5782
LeftForeArm  36.1721 -1.88104 -13.9007
LeftHand  -0.0208601 5.43031 6.1234
RightShoulder  1.51567 1.79503 23.5437
RightArm  -22.9411 -0.734287 40.5095
RightForeArm  59.0117 -1.18118 5.38835
RightHand  0.219145 -6.74274 -19.7871
LeftUpLeg  -27.2892 24.5212 -1.5799
LeftLeg  18.7498 18.3092 6.46717
LeftFoot  2.32247 -0.0495622 0.296344
LeftToes  1.09107e-011 -1.16422e-010 2.98337e-011
614
root  -38.7431 38.6749 -81.4443 0.433853 -68.3058 6.69385
RightUpLeg  -3.94256 -15.6293 -21.2184
RightLeg  24.4684 -14.1398 -7.13314
RightFoot  -0.202221 -2.78956 28.0582
RightToes  -1.33073e-015 0 -3.6325e-017
Spine  -3.73294 -0.895133 -2.48273
Spine1  8.10004 -0.311645 -2.67342
HEad  7.81287 50.1482 -14.586
LeftShoulder1  1.88362 -2.74832 -25.2008
LeftArm  5.94683 -9.31073 -53.4209
LeftForeArm  37.537 -0.368369 -13.9823
LeftHand  -0.0227357 5.43031 4.81007
RightShoulder  1.50616 1.7958 23.3408
RightArm  -24.6999 -3.43165 43.1374
RightForeArm  61.0763 -0.0373584 4.77569
RightHand  0.226714 -6.84829 -19.053
LeftUpLeg  -26.1779 22.7241 -3.08167
LeftLeg  19.8627 17.7844 6.71482
LeftFoot  0.62625 -0.115652 1.06741
LeftToes  1.09107e-011 -1.16422e-010 2.98337e-011
615
root  -38.9659 38.8257 -80.4216 0.717606 -65.8297 5.65305
RightUpLeg  -5.66707 -13.7209 -21.7329
RightLeg  31.2968 -15.9661 -10.4471
RightFoot  3.77005 -2.4394 18.4409
RightToes  -1.33073e-015 0 -3.6325e-017
Spine  -3.77438 -0.647393 -2.08677
Spine1  8.0163 0.00876828 -2.93644
HEad  9.42891 50.2722 -14.2173
LeftShoulder1  1.68912 -2.04082 -25.6973
LeftArm  6.43199 -9.09047 -52.2562
LeftForeArm  37.3319 0.226466 -14.1857
LeftHand  -0.0151643 5.67409 4.42323
RightShoulder  1.46428 1.58782 23.7555
RightArm  -26.3953 -5.68538 45.3652
RightForeArm  63.3555 0.893522 4.21512
RightHand  0.237114 -7.02635 -17.862
LeftUpLeg  -24.3658 21.4332 -3.86099
LeftLeg  19.5299 16.7965 6.25215
LeftFoot  -0.85541 -0.149419 1.68483
LeftToes  1.09107e-011 -1.16422e-010 2.98337e-011
616
root  -39.1768 38.9232 -79.5909 1.26349 -62.8771 4.40601
RightUpLeg  -7.36935 -10.7948 -20.9286
RightLeg  37.6436 -15.1835 -12.4688
RightFoot  2.3902 -1.0391 8.74966
RightToes  -1.33073e-015 0 -3.6325e-017
Spine  -3.74176 -0.57093 -2.36547
Spine1  8.13072 0.0288736 -2.92238
HEad  10.7364 50.355 -13.925
LeftShoulder1  1.57544 -1.66109 -25.8269
LeftArm  5.06089 -8.5419 -51.4438
LeftForeArm  37.2589 0.589597 -13.9826
LeftHand  -0.00819277 5.87089 4.50098
RightShoulder  1.44796 1.44727 24.3225
RightArm  -27.4616 -6.95979 47.568
RightForeArm  65.1084 0.550704 3.77628
RightHand  0.262418 -7.28656 -17.0597
LeftUpLeg  -22.7223 18.5221 -3.85546
LeftLeg  19.4974 16.8967 5.98352
LeftFoot  -2.06075 -0.156439 2.08081
LeftToes  1.09107e-011 -1.16422e-010 2.98337e-011
617
root  -39.3865 38.9345 -78.9044 1.29941 -59.1866 3.931
RightUpLeg  -8.56217 -8.07091 -19.7557
RightLeg  42.3234 -12.3256 -12.0297
RightFoot  -3.03009 -0.726183 9.68751
RightToes  -1.33073e-015 0 -3.6325e-017
Spine  -3.44737 -0.72295 -3.77792
Spine1  7.99047 -0.342967 -2.62476
HEad  12.0792 50.1542 -13.4129
LeftShoulder1  1.54973 -1.59575 -25.7205
LeftArm  3.79035 -7.93168 -50.9315
LeftForeArm  37.0266 0.9105 -13.7743
LeftHand  -0.00862528 5.83866 4.53846
RightShoulder  1.40076 1.21671 24.8497
RightArm  -27.1579 -7.93512 49.3239
RightForeArm  66.8328 -0.00965144 3.94535
RightHand  0.143979 -6.59157 -15.5775
LeftUpLeg  -21.5438 14.1927 -3.86256
LeftLeg  19.9476 17.7085 5.87537
LeftFoot  -3.24997 -0.129684 2.11087
LeftToes  1.09107e-011 -1.16422e-010 2.98337e-011
618
root  -39.6148 38.9829 -78.2509 1.64528 -54.7456 3.33746
RightUpLeg  -9.64647 -5.52873 -18.2121
RightLeg  45.0328 -7.8098 -8.58561
RightFoot  -5.84745 -0.475185 9.05413
RightToes  -1.33073e-015 0 -3.6325e-017
Spine  -3.42744 -1.06016 -5.21781
Spine1  8.06915 -0.979437 -1.9071
HEad  13.3914 49.4466 -12.6645
LeftShoulder1  1.59839 -1.81357 -25.3099
LeftArm  3.51661 -7.81814 -50.925
LeftForeArm  36.2951 1.21839 -13.7647
LeftHand  -0.0102212 5.7931 4.63489
RightShoulder  1.33399 0.943509 25.2783
RightArm  -26.7171 -8.73231 50.8153
RightForeArm  68.5867 -0.131419 4.22998
RightHand  0.129901 -6.57662 -14.529
LeftUpLeg  -20.3208 8.72027 -3.87575
LeftLeg  19.7108 18.8971 5.8787
LeftFoot  -3.91754 -0.12271 2.25569
LeftToes  1.09107e-011 -1.16422e-010 2.98337e-011
619
root  -39.8603 39.0457 -77.5921 2.0553 -49.9341 2.82352
RightUpLeg  -10.8284 -2.00373 -15.7863
RightLeg  46.493 -5.50415 -6.48848
RightFoot  -7.39743 -0.367585 9.19245
RightToes  -1.33073e-015 0 -3.6325e-017
Spine  -3.827 -1.46459 -6.45925
Spine1  8.6267 -1.63942 -1.0805
HEad  14.1946 47.8597 -11.8737
LeftShoulder1  1.68202 -2.22183 -24.4816
LeftArm  3.48034 -8.02185 -51.5258
LeftForeArm  36.5759 1.12726 -13.7288
LeftHand  -0.0120363 5.69655 4.48281
RightShoulder  1.26544 0.687675 25.5736
RightArm  -26.0833 -9.32345 52.0063
RightForeArm  69.8529 0.343486 4.67521
RightHand  0.107563 -6.52044 -13.1271
LeftUpLeg  -19.0946 4.93894 -4.3484
LeftLeg  18.8954 18.1396 5.35498
LeftFoot  -4.50831 -0.132399 2.67292
LeftToes  1.09107e-011 -1.16422e-010 2.98337e-011
620
root  -40.1056 39.0684 -76.9362 2.31218 -45.2008 2.53326
RightUpLeg  -12.1917 0.476921 -13.672
RightLeg  46.7893 -4.19274 -5.07928
RightFoot  -9.48217 -0.226622 9.96119
RightToes  -1.33073e-015 0 -3.6325e-017
Spine  -3.94437 -1.78562 -7.59413
Spine1  8.83918 -2.16286 -0.36409
HEad  14.482 45.9561 -11.1919
LeftShoulder1  1.67678 -2.29701 -23.9547
LeftArm  4.73084 -8.8367 -52.0613
LeftForeArm  36.4056 0.679816 -13.9252
LeftHand  -0.0188115 5.73786 4.07157
RightShoulder  1.2097 0.482461 25.8185
RightArm  -25.3865 -9.74795 52.814
RightForeArm  70.2791 0.811508 5.1436
RightHand  0.0894031 -6.39326 -12.7072
LeftUpLeg  -17.9688 2.94297 -5.08556
LeftLeg  18.2578 15.7065 4.4512
LeftFoot  -5.3673 -0.134768 3.20224
LeftToes  1.09107e-011 -1.16422e-010 2.98337e-011
621
root  -40.3359 39.0883 -76.2628 2.47133 -40.6832 2.24823
RightUpLeg  -13.7252 3.31852 -11.5875
RightLeg  46.1778 -5.00392 -5.86663
RightFoot  -10.7967 -0.1195 9.65383
RightToes  -1.33073e-015 0 -3.6325e-017
Spine  -3.80323 -2.00064 -8.18913
Spine1  8.81752 -2.44806 -0.0260181
HEad  14.8258 43.7811 -10.2569
LeftShoulder1  1.75019 -2.65254 -23.3728
LeftArm  5.69927 -9.26993 -52.6618
LeftForeArm  36.0803 -0.317037 -13.9574
LeftHand  -0.0152456 5.5684 4.15984
RightShoulder  1.17581 0.343536 26.1107
RightArm  -23.8424 -9.87718 53.0728
RightForeArm  69.7313 1.05262 5.95245
RightHand  0.0715405 -6.20066 -13.031
LeftUpLeg  -16.7294 1.74478 -5.83579
LeftLeg  17.7916 12.6494 3.58494
LeftFoot  -6.1865 -0.138462 3.90294
LeftToes  1.09107e-011 -1.16422e-010 2.98337e-011
